<svg width="83" height="62" viewBox="0 0 83 62" fill="none" xmlns="http://www.w3.org/2000/svg">
<path d="M13.3408 21.1094L13.1221 22C12.4033 22.1562 11.8148 22.2344 11.3564 22.2344C10.9189 22.2344 10.195 22.1875 9.18457 22.0938C8.42415 22.0312 7.74186 22 7.1377 22C6.09603 22 5.02311 22.0938 3.91895 22.2812L4.1377 21.4219C5.18978 21.3177 5.9554 21.099 6.43457 20.7656C6.77832 20.526 7.06999 20.1198 7.30957 19.5469C7.55957 18.9635 8.11686 16.9427 8.98145 13.4844L10.9814 5.20312L11.0908 4.8125C10.4762 4.79167 10.0127 4.78125 9.7002 4.78125C7.77311 4.78125 6.24186 4.98958 5.10645 5.40625C3.98145 5.82292 3.13249 6.42708 2.55957 7.21875C1.99707 8.01042 1.71582 8.86458 1.71582 9.78125C1.71582 10.1042 1.77311 10.401 1.8877 10.6719C1.97103 10.8594 2.2002 11.1615 2.5752 11.5781C2.92936 11.9635 3.10645 12.3177 3.10645 12.6406C3.10645 12.9219 3.00228 13.1615 2.79395 13.3594C2.58561 13.5573 2.33561 13.6562 2.04395 13.6562C1.60645 13.6562 1.25228 13.4479 0.981445 13.0312C0.585612 12.4167 0.387695 11.6354 0.387695 10.6875C0.387695 9.41667 0.77832 8.18229 1.55957 6.98438C2.35124 5.78646 3.43457 4.85938 4.80957 4.20312C6.18457 3.54688 7.85645 3.21875 9.8252 3.21875C10.7627 3.21875 12.2575 3.35417 14.3096 3.625C15.7679 3.8125 16.8252 3.90625 17.4814 3.90625C18.1377 3.90625 18.6012 3.79688 18.8721 3.57812C19.1429 3.35938 19.2783 3.06771 19.2783 2.70312C19.2783 2.63021 19.2627 2.48438 19.2314 2.26562C19.2002 2.06771 19.1846 1.9375 19.1846 1.875C19.1846 1.59375 19.2783 1.35938 19.4658 1.17188C19.6533 0.984375 19.8773 0.890625 20.1377 0.890625C20.4502 0.890625 20.7054 1.00521 20.9033 1.23438C21.1117 1.46354 21.2158 1.77083 21.2158 2.15625C21.2158 2.94792 20.7939 3.63021 19.9502 4.20312C19.1064 4.77604 17.695 5.0625 15.7158 5.0625C15.0075 5.0625 14.2523 5.03125 13.4502 4.96875C13.346 5.34375 13.0179 6.61458 12.4658 8.78125L11.1064 14.1875L10.2783 17.4844L9.41895 21.25C10.1169 21.3333 10.695 21.375 11.1533 21.375C11.8512 21.375 12.5804 21.2865 13.3408 21.1094ZM19.4658 22H17.1377L18.2314 17.7969C18.7627 15.7344 19.2262 13.776 19.6221 11.9219C19.7158 11.4635 19.7627 11.1771 19.7627 11.0625C19.7627 10.8125 19.6481 10.6875 19.4189 10.6875C19.2627 10.6875 19.0231 10.7969 18.7002 11.0156C18.3773 11.224 17.7939 11.75 16.9502 12.5938L16.4658 12.0469C17.4658 10.974 18.4606 10.1719 19.4502 9.64062C20.4502 9.09896 21.2158 8.82812 21.7471 8.82812C21.9346 8.82812 22.0804 8.875 22.1846 8.96875C22.2992 9.05208 22.3564 9.16146 22.3564 9.29688C22.3564 9.43229 22.2887 9.79167 22.1533 10.375L21.4814 13.1719C22.5335 11.5156 23.721 10.099 25.0439 8.92188C25.6794 8.35938 26.2106 8.07812 26.6377 8.07812C26.9502 8.07812 27.2106 8.18229 27.4189 8.39062C27.6273 8.58854 27.7314 8.82292 27.7314 9.09375C27.7314 9.375 27.6273 9.61458 27.4189 9.8125C27.221 10.0104 26.7158 10.2448 25.9033 10.5156C25.1325 10.776 24.5023 11.0885 24.0127 11.4531C23.5335 11.8177 23.0023 12.375 22.4189 13.125C21.846 13.875 21.445 14.5312 21.2158 15.0938C20.9867 15.6458 20.6377 16.9375 20.1689 18.9688L19.4658 22ZM34.3564 18.0781L34.8721 18.7656C32.32 21.1927 30.1325 22.4062 28.3096 22.4062C27.57 22.4062 27.0023 22.1562 26.6064 21.6562C26.221 21.1562 26.0283 20.3542 26.0283 19.25C26.0283 17.0208 26.7054 14.8021 28.0596 12.5938C29.5804 10.0833 31.3981 8.82812 33.5127 8.82812C34.2523 8.82812 34.8148 9.01562 35.2002 9.39062C35.596 9.75521 35.7939 10.2604 35.7939 10.9062C35.7939 11.5833 35.5596 12.25 35.0908 12.9062C34.6221 13.5625 33.7835 14.2448 32.5752 14.9531C31.971 15.2969 30.6794 15.9167 28.7002 16.8125C28.6064 17.375 28.5596 17.9115 28.5596 18.4219C28.5596 19.1615 28.6742 19.6771 28.9033 19.9688C29.1429 20.2604 29.4867 20.4062 29.9346 20.4062C30.3617 20.4062 30.8304 20.2865 31.3408 20.0469C32.0283 19.724 33.0335 19.0677 34.3564 18.0781ZM28.8877 15.8125C30.5648 15.0625 31.8252 14.2552 32.6689 13.3906C33.2419 12.7865 33.5283 12.1875 33.5283 11.5938C33.5283 11.1458 33.4085 10.7917 33.1689 10.5312C32.9398 10.2604 32.6377 10.125 32.2627 10.125C31.8773 10.125 31.5023 10.2708 31.1377 10.5625C30.6481 10.9479 30.2367 11.5312 29.9033 12.3125C29.4242 13.4583 29.0856 14.625 28.8877 15.8125ZM37.5127 12.5156L36.9814 11.9688C38.3148 10.6979 39.3773 9.85417 40.1689 9.4375C40.9606 9.02083 41.6377 8.8125 42.2002 8.8125C42.4189 8.8125 42.5908 8.85938 42.7158 8.95312C42.8408 9.04688 42.9033 9.15625 42.9033 9.28125C42.9033 9.375 42.8773 9.54167 42.8252 9.78125L42.1221 12.9219C43.1846 11.7448 44.5179 10.6458 46.1221 9.625C46.9762 9.09375 47.6794 8.82812 48.2314 8.82812C48.6377 8.82812 48.9554 8.95833 49.1846 9.21875C49.4137 9.47917 49.5283 9.85417 49.5283 10.3438C49.5283 10.6667 49.4814 11.0312 49.3877 11.4375C49.221 12.1146 48.7835 13.5885 48.0752 15.8594C47.4085 17.9844 47.0752 19.3958 47.0752 20.0938C47.0752 20.3021 47.1064 20.4583 47.1689 20.5625C47.2314 20.6667 47.32 20.7188 47.4346 20.7188C47.7367 20.7188 48.2106 20.4271 48.8564 19.8438C49.3148 19.4271 49.7731 19.0417 50.2314 18.6875L50.6221 19.25C49.6637 20.3125 48.6689 21.1667 47.6377 21.8125C46.9814 22.2292 46.4398 22.4375 46.0127 22.4375C45.6169 22.4375 45.3096 22.2917 45.0908 22C44.8721 21.7188 44.7627 21.2552 44.7627 20.6094C44.7627 19.6823 45.3408 17.375 46.4971 13.6875C46.8512 12.375 47.0283 11.6094 47.0283 11.3906C47.0283 11.0677 46.8356 10.9062 46.4502 10.9062C46.0335 10.9062 45.4971 11.125 44.8408 11.5625C43.8617 12.2083 43.0439 12.9688 42.3877 13.8438C41.971 14.4062 41.6221 15.3021 41.3408 16.5312L40.0752 21.9844H37.7471C38.1846 20.4219 38.5648 18.9271 38.8877 17.5L40.2783 11.5625C40.3304 11.3229 40.3564 11.151 40.3564 11.0469C40.3564 10.7656 40.2523 10.625 40.0439 10.625C39.8773 10.625 39.6377 10.7344 39.3252 10.9531C38.6794 11.3802 38.0752 11.901 37.5127 12.5156ZM63.7939 18.7656L64.2314 19.3594C62.8356 20.5365 61.7992 21.3177 61.1221 21.7031C60.1846 22.2344 59.445 22.5 58.9033 22.5C58.6533 22.5 58.4502 22.4271 58.2939 22.2812C58.1377 22.1458 58.0596 21.9896 58.0596 21.8125C58.0596 21.6354 58.1169 21.3438 58.2314 20.9375L58.7783 19.0312C57.5283 20.375 56.4867 21.2865 55.6533 21.7656C54.82 22.2448 54.07 22.4844 53.4033 22.4844C52.8512 22.4844 52.3877 22.2448 52.0127 21.7656C51.6377 21.276 51.4502 20.5625 51.4502 19.625C51.4502 18.1458 51.9554 16.4479 52.9658 14.5312C53.9867 12.6042 55.1169 11.1823 56.3564 10.2656C57.6064 9.33854 58.7471 8.875 59.7783 8.875C60.0075 8.875 60.3512 8.91146 60.8096 8.98438C61.2992 6.95312 61.7679 5.47396 62.2158 4.54688C62.6637 3.60938 63.2419 2.80208 63.9502 2.125C64.6585 1.44792 65.4658 0.927083 66.3721 0.5625C67.2887 0.1875 68.1429 0 68.9346 0C69.3512 0 69.6846 0.109375 69.9346 0.328125C70.1846 0.546875 70.3096 0.822917 70.3096 1.15625C70.3096 1.47917 70.195 1.74479 69.9658 1.95312C69.7367 2.15104 69.4242 2.25 69.0283 2.25C68.7679 2.25 68.2835 2.19792 67.5752 2.09375C66.8669 1.98958 66.3825 1.9375 66.1221 1.9375C65.7575 1.9375 65.4346 2.05208 65.1533 2.28125C64.8825 2.5 64.6221 2.97917 64.3721 3.71875C64.2054 4.1875 63.8252 5.68229 63.2314 8.20312L61.0127 17.6406C60.7523 18.7552 60.6221 19.4948 60.6221 19.8594C60.6221 20.2552 60.7731 20.4531 61.0752 20.4531C61.2627 20.4531 61.4814 20.3854 61.7314 20.25C62.0856 20.0521 62.7731 19.5573 63.7939 18.7656ZM60.4814 10.7031C59.6481 10.5156 59.0596 10.4219 58.7158 10.4219C58.0179 10.4219 57.3356 10.6979 56.6689 11.25C56.0023 11.7917 55.3564 12.849 54.7314 14.4219C54.1169 15.9948 53.8096 17.3646 53.8096 18.5312C53.8096 19.0625 53.9502 19.5 54.2314 19.8438C54.5231 20.1771 54.8512 20.3438 55.2158 20.3438C55.6533 20.3438 56.1533 20.151 56.7158 19.7656C57.5179 19.1927 58.1533 18.4948 58.6221 17.6719C58.9033 17.151 59.2835 15.875 59.7627 13.8438L60.4814 10.7031ZM65.8096 12.0312L65.3096 11.2969L66.4658 10.5156C67.5908 9.74479 68.3825 9.25 68.8408 9.03125C69.1012 8.90625 69.3408 8.84375 69.5596 8.84375C69.7783 8.84375 69.9867 8.96875 70.1846 9.21875C71.1012 10.375 71.8721 11.9375 72.4971 13.9062C73.1221 15.8646 73.4346 17.7656 73.4346 19.6094C73.4346 19.849 73.4242 20.2135 73.4033 20.7031C75.1637 17.4635 76.0439 14.8906 76.0439 12.9844C76.0439 12.5885 75.9554 12.0625 75.7783 11.4062C75.5908 10.6771 75.4971 10.1562 75.4971 9.84375C75.4971 9.54167 75.5908 9.29167 75.7783 9.09375C75.9762 8.89583 76.221 8.79688 76.5127 8.79688C76.8773 8.79688 77.1689 8.9375 77.3877 9.21875C77.6169 9.5 77.7314 9.90104 77.7314 10.4219C77.7314 11.7656 77.4242 13.4427 76.8096 15.4531C76.195 17.4531 75.2262 19.6094 73.9033 21.9219C72.5908 24.224 71.3877 25.9323 70.2939 27.0469C69.2106 28.1719 68.1585 28.974 67.1377 29.4531C66.1273 29.9427 65.1689 30.1875 64.2627 30.1875C63.5752 30.1875 63.0596 30.0573 62.7158 29.7969C62.3617 29.5469 62.1846 29.2448 62.1846 28.8906C62.1846 28.5781 62.32 28.3073 62.5908 28.0781C62.8617 27.8594 63.2262 27.75 63.6846 27.75C64.0387 27.75 64.5231 27.8177 65.1377 27.9531C65.7939 28.099 66.2419 28.1719 66.4814 28.1719C67.1169 28.1719 67.7887 27.9062 68.4971 27.375C69.4658 26.6458 70.2314 25.776 70.7939 24.7656C71.3669 23.7552 71.6533 22.7344 71.6533 21.7031C71.6533 20.2552 71.4398 18.5156 71.0127 16.4844C70.596 14.4531 70.0023 12.901 69.2314 11.8281C68.846 11.276 68.4346 11 67.9971 11C67.4867 11 66.7575 11.3438 65.8096 12.0312ZM16.4814 46.0625H15.6377C15.6898 45.25 15.7158 44.599 15.7158 44.1094C15.7158 42.6406 15.4085 41.6198 14.7939 41.0469C14.1898 40.4635 13.4242 40.1719 12.4971 40.1719C11.2575 40.1719 9.97103 40.6771 8.6377 41.6875C7.30436 42.6875 6.15853 44.2552 5.2002 46.3906C4.24186 48.5156 3.7627 50.7031 3.7627 52.9531C3.7627 55.1302 4.2054 56.8021 5.09082 57.9688C5.98665 59.125 7.10645 59.7031 8.4502 59.7031C10.2731 59.7031 11.945 58.6094 13.4658 56.4219C13.6221 56.2031 13.7835 56.0938 13.9502 56.0938C14.0856 56.0938 14.2002 56.1406 14.2939 56.2344C14.3877 56.3177 14.4346 56.4167 14.4346 56.5312C14.4346 56.8125 14.0856 57.3646 13.3877 58.1875C12.7002 59.0104 11.8304 59.6927 10.7783 60.2344C9.72624 60.7865 8.68978 61.0625 7.66895 61.0625C6.43978 61.0625 5.29915 60.7396 4.24707 60.0938C3.19499 59.4583 2.37728 58.5469 1.79395 57.3594C1.21061 56.1719 0.918945 54.7604 0.918945 53.125C0.918945 50.8438 1.5127 48.5729 2.7002 46.3125C3.89811 44.0521 5.3929 42.3073 7.18457 41.0781C8.97624 39.849 10.7262 39.2344 12.4346 39.2344C13.0492 39.2344 13.6585 39.3021 14.2627 39.4375C14.5231 39.5 15.596 39.8594 17.4814 40.5156C16.8877 42.3073 16.5544 44.1562 16.4814 46.0625ZM23.7314 54.2344L24.2627 54.7969C23.4502 55.7135 22.4867 56.5521 21.3721 57.3125C20.2679 58.0625 19.3564 58.4375 18.6377 58.4375C18.3148 58.4375 18.0492 58.3125 17.8408 58.0625C17.6325 57.8229 17.5283 57.4896 17.5283 57.0625C17.5283 56.2292 17.8512 54.5 18.4971 51.875L20.1846 45.0156C20.7992 42.5365 21.3148 40.875 21.7314 40.0312C22.3773 38.75 23.2887 37.7552 24.4658 37.0469C25.6533 36.3385 26.9033 35.9844 28.2158 35.9844C28.6637 35.9844 29.0127 36.0938 29.2627 36.3125C29.5231 36.5208 29.6533 36.776 29.6533 37.0781C29.6533 37.4115 29.5283 37.6875 29.2783 37.9062C29.0283 38.1146 28.6637 38.2188 28.1846 38.2188C27.8721 38.2188 27.4294 38.1667 26.8564 38.0625C26.3564 37.9792 25.8929 37.9375 25.4658 37.9375C25.0387 37.9375 24.7158 38.026 24.4971 38.2031C24.195 38.4531 23.9189 38.9792 23.6689 39.7812C23.4294 40.5833 23.0335 42.1667 22.4814 44.5312L20.9346 51.0781C20.1637 54.3594 19.7783 56.0729 19.7783 56.2188C19.7783 56.5521 19.8981 56.7188 20.1377 56.7188C20.3669 56.7188 20.7002 56.5833 21.1377 56.3125C22.0023 55.7708 22.8669 55.0781 23.7314 54.2344ZM32.6689 44.8594C33.6898 44.8594 34.5387 45.2656 35.2158 46.0781C35.8929 46.8906 36.2314 48.0208 36.2314 49.4688C36.2314 51.7812 35.4189 53.8594 33.7939 55.7031C32.1689 57.5365 30.4502 58.4531 28.6377 58.4531C27.5231 58.4531 26.6221 58.0885 25.9346 57.3594C25.2575 56.6302 24.9189 55.6354 24.9189 54.375C24.9189 52.1875 25.5439 50.1667 26.7939 48.3125C28.3669 46.0104 30.3252 44.8594 32.6689 44.8594ZM31.3408 46.0312C30.4554 46.0312 29.596 46.6667 28.7627 47.9375C27.9398 49.1979 27.5283 50.9427 27.5283 53.1719C27.5283 54.526 27.7835 55.5938 28.2939 56.375C28.6689 56.9479 29.1689 57.2344 29.7939 57.2344C30.6689 57.2344 31.4658 56.6927 32.1846 55.6094C33.1012 54.2031 33.5596 52.4583 33.5596 50.375C33.5596 48.8125 33.346 47.6979 32.9189 47.0312C32.5023 46.3646 31.9762 46.0312 31.3408 46.0312ZM42.1064 42.4531L44.5908 41.5L43.4658 45.875H46.7002L46.4502 46.9844H43.2158L41.8408 52.2188C41.4137 53.7917 41.2002 54.8854 41.2002 55.5C41.2002 55.7812 41.2575 55.9844 41.3721 56.1094C41.4971 56.2344 41.6637 56.2969 41.8721 56.2969C42.195 56.2969 42.6898 56.1042 43.3564 55.7188C44.2314 55.2083 45.0648 54.6302 45.8564 53.9844L46.4502 54.7031C44.1689 56.4219 42.6429 57.474 41.8721 57.8594C41.1012 58.2448 40.4814 58.4375 40.0127 58.4375C39.6273 58.4375 39.32 58.2969 39.0908 58.0156C38.8721 57.7344 38.7627 57.276 38.7627 56.6406C38.7627 55.8906 38.9606 54.7448 39.3564 53.2031L40.9658 46.9844H38.4346L38.7158 45.875H41.2314L42.1064 42.4531ZM60.5283 54.6875L60.9346 55.2656C59.9762 56.3281 58.9919 57.1719 57.9814 57.7969C57.2939 58.224 56.7262 58.4375 56.2783 58.4375C55.9137 58.4375 55.6169 58.2917 55.3877 58C55.1689 57.7083 55.0596 57.2552 55.0596 56.6406C55.0596 56.224 55.1429 55.6198 55.3096 54.8281C55.4867 54.026 55.9762 52.3125 56.7783 49.6875C57.1325 48.3958 57.3096 47.6406 57.3096 47.4219C57.3096 47.0677 57.1325 46.8906 56.7783 46.8906C56.3408 46.8906 55.7939 47.1094 55.1377 47.5469C54.221 48.151 53.4085 48.9219 52.7002 49.8594C52.2523 50.4635 51.8929 51.3594 51.6221 52.5469L50.3721 57.9844H48.0439C48.5439 56.1615 48.9294 54.6719 49.2002 53.5156L51.4971 43.4844C51.9137 41.6406 52.4606 40.224 53.1377 39.2344C53.8252 38.2344 54.7158 37.4375 55.8096 36.8438C56.9137 36.25 58.0023 35.9531 59.0752 35.9531C59.5231 35.9531 59.8773 36.0625 60.1377 36.2812C60.3981 36.5 60.5283 36.776 60.5283 37.1094C60.5283 37.3906 60.3981 37.6406 60.1377 37.8594C59.8877 38.0677 59.5439 38.1719 59.1064 38.1719C58.8564 38.1719 58.5335 38.1458 58.1377 38.0938C57.2419 37.9688 56.6221 37.9062 56.2783 37.9062C55.7992 37.9062 55.4085 38.099 55.1064 38.4844C54.8044 38.8698 54.4919 39.776 54.1689 41.2031L52.4189 48.9219C53.6585 47.6198 55.0075 46.5208 56.4658 45.625C57.32 45.0938 58.0075 44.8281 58.5283 44.8281C58.9346 44.8281 59.2523 44.9531 59.4814 45.2031C59.7106 45.4427 59.8252 45.7812 59.8252 46.2188C59.8252 46.5729 59.7835 46.9271 59.7002 47.2812C59.5648 47.8958 59.2471 49.0104 58.7471 50.625C58.07 52.8542 57.6689 54.2396 57.5439 54.7812C57.4294 55.3229 57.3721 55.8073 57.3721 56.2344C57.3721 56.401 57.3981 56.526 57.4502 56.6094C57.5127 56.6927 57.6012 56.7344 57.7158 56.7344C57.9658 56.7344 58.4346 56.4375 59.1221 55.8438C59.5075 55.5208 59.9762 55.1354 60.5283 54.6875ZM70.2627 54.0781L70.7783 54.7656C68.2262 57.1927 66.0387 58.4062 64.2158 58.4062C63.4762 58.4062 62.9085 58.1562 62.5127 57.6562C62.1273 57.1562 61.9346 56.3542 61.9346 55.25C61.9346 53.0208 62.6117 50.8021 63.9658 48.5938C65.4867 46.0833 67.3044 44.8281 69.4189 44.8281C70.1585 44.8281 70.721 45.0156 71.1064 45.3906C71.5023 45.7552 71.7002 46.2604 71.7002 46.9062C71.7002 47.5833 71.4658 48.25 70.9971 48.9062C70.5283 49.5625 69.6898 50.2448 68.4814 50.9531C67.8773 51.2969 66.5856 51.9167 64.6064 52.8125C64.5127 53.375 64.4658 53.9115 64.4658 54.4219C64.4658 55.1615 64.5804 55.6771 64.8096 55.9688C65.0492 56.2604 65.3929 56.4062 65.8408 56.4062C66.2679 56.4062 66.7367 56.2865 67.2471 56.0469C67.9346 55.724 68.9398 55.0677 70.2627 54.0781ZM64.7939 51.8125C66.471 51.0625 67.7314 50.2552 68.5752 49.3906C69.1481 48.7865 69.4346 48.1875 69.4346 47.5938C69.4346 47.1458 69.3148 46.7917 69.0752 46.5312C68.846 46.2604 68.5439 46.125 68.1689 46.125C67.7835 46.125 67.4085 46.2708 67.0439 46.5625C66.5544 46.9479 66.1429 47.5312 65.8096 48.3125C65.3304 49.4583 64.9919 50.625 64.7939 51.8125ZM79.8096 44.8438C80.7367 44.8438 81.4502 45.026 81.9502 45.3906C82.4606 45.7448 82.7158 46.1562 82.7158 46.625C82.7158 46.9062 82.6064 47.151 82.3877 47.3594C82.1794 47.5677 81.9242 47.6719 81.6221 47.6719C81.4242 47.6719 81.2523 47.6302 81.1064 47.5469C80.9606 47.4531 80.7523 47.2292 80.4814 46.875C79.971 46.1979 79.4658 45.8594 78.9658 45.8594C78.5387 45.8594 78.1585 46.026 77.8252 46.3594C77.5023 46.6823 77.3408 47.0885 77.3408 47.5781C77.3408 48.0052 77.445 48.4219 77.6533 48.8281C77.8617 49.224 78.3877 49.8698 79.2314 50.7656C80.3877 51.9948 80.9658 53.1615 80.9658 54.2656C80.9658 55.3698 80.4971 56.3385 79.5596 57.1719C78.6221 57.9948 77.4137 58.4062 75.9346 58.4062C74.695 58.4062 73.7731 58.1562 73.1689 57.6562C72.5648 57.1458 72.2627 56.5208 72.2627 55.7812C72.2627 55.4167 72.3773 55.1146 72.6064 54.875C72.8356 54.6354 73.1169 54.5156 73.4502 54.5156C73.7419 54.5156 73.9919 54.6146 74.2002 54.8125C74.4085 55 74.5127 55.224 74.5127 55.4844C74.5127 55.5885 74.5023 55.724 74.4814 55.8906C74.471 56.026 74.4658 56.1406 74.4658 56.2344C74.4658 56.5781 74.6117 56.8698 74.9033 57.1094C75.1846 57.349 75.57 57.4688 76.0596 57.4688C76.6221 57.4688 77.1169 57.375 77.5439 57.1875C77.971 56.9896 78.3044 56.6979 78.5439 56.3125C78.7835 55.9167 78.9033 55.526 78.9033 55.1406C78.9033 54.7656 78.7887 54.3906 78.5596 54.0156C78.3408 53.6406 77.8408 53.0208 77.0596 52.1562C75.9762 50.9479 75.4346 49.7865 75.4346 48.6719C75.4346 47.651 75.846 46.7604 76.6689 46C77.4919 45.2292 78.5387 44.8438 79.8096 44.8438Z" fill="black"/>
</svg>
